<mxfile host="app.diagrams.net" modified="2023-12-01T09:08:44.969Z" agent="Mozilla/5.0 (X11; Linux x86_64; rv:120.0) Gecko/20100101 Firefox/120.0" etag="30eA9GaupmnyH9GfEhKi" version="22.1.5" type="device">
  <diagram name="Page-1" id="5f0bae14-7c28-e335-631c-24af17079c00">
    <mxGraphModel dx="1442" dy="739" grid="1" gridSize="10" guides="1" tooltips="1" connect="1" arrows="1" fold="1" page="1" pageScale="1" pageWidth="1100" pageHeight="850" background="none" math="0" shadow="0">
      <root>
        <mxCell id="0" />
        <mxCell id="1" parent="0" />
        <mxCell id="9-R7LX4HlaJOmCOdKBJK-1" value="«System»&lt;br&gt;&lt;b&gt;Powerhouse&lt;/b&gt;" style="html=1;dropTarget=0;whiteSpace=wrap;" vertex="1" parent="1">
          <mxGeometry x="480" y="320" width="160" height="120" as="geometry" />
        </mxCell>
        <mxCell id="9-R7LX4HlaJOmCOdKBJK-2" value="" style="shape=module;jettyWidth=8;jettyHeight=4;" vertex="1" parent="9-R7LX4HlaJOmCOdKBJK-1">
          <mxGeometry x="1" width="20" height="20" relative="1" as="geometry">
            <mxPoint x="-27" y="7" as="offset" />
          </mxGeometry>
        </mxCell>
        <mxCell id="9-R7LX4HlaJOmCOdKBJK-5" style="orthogonalLoop=1;jettySize=auto;html=1;exitX=1;exitY=1;exitDx=0;exitDy=0;exitPerimeter=0;entryX=0;entryY=0;entryDx=0;entryDy=0;startArrow=none;startFill=0;rounded=0;" edge="1" parent="1" source="9-R7LX4HlaJOmCOdKBJK-3" target="9-R7LX4HlaJOmCOdKBJK-1">
          <mxGeometry relative="1" as="geometry" />
        </mxCell>
        <mxCell id="9-R7LX4HlaJOmCOdKBJK-3" value="&lt;div&gt;Menschlicher&lt;/div&gt;&lt;div&gt;Spieler&lt;br&gt;&lt;/div&gt;" style="shape=umlActor;verticalLabelPosition=bottom;verticalAlign=top;html=1;" vertex="1" parent="1">
          <mxGeometry x="370" y="220" width="30" height="60" as="geometry" />
        </mxCell>
      </root>
    </mxGraphModel>
  </diagram>
</mxfile>
